<svg id="Layer_1" data-name="Layer 1" xmlns="http://www.w3.org/2000/svg" xmlns:xlink="http://www.w3.org/1999/xlink" viewBox="0 0 770 250"><defs><style>.cls-1{fill:none;}.cls-2{fill:#19223d;}.cls-3{fill:#d96277;}.cls-4{clip-path:url(#clip-path);}.cls-5{fill:#fff;}</style><clipPath id="clip-path"><rect class="cls-1" x="7.41" y="5.47" width="755.18" height="239.07"/></clipPath></defs><title>logo</title><rect class="cls-2" x="7.41" y="5.47" width="755.18" height="239.07"/><rect class="cls-3" x="570.74" y="5.47" width="191.85" height="239.07"/><g class="cls-4"><path class="cls-5" d="M510.87,159l-.05,9.94c.17-1.73.26-3.46.26-5.22,0-1.59-.08-3.17-.21-4.72"/><path class="cls-5" d="M546.19,224.13l-32.45-27.92a8.65,8.65,0,0,1-3-6.6l.08-20.6V169l.06-9.95.35-80.08H494.77v47.17a51.46,51.46,0,0,0-35.36-14c-28.49,0-51.93,23.17-51.93,51.67a52.18,52.18,0,0,0,51.93,51.94,51.36,51.36,0,0,0,37-15.74L537,234.86a7.07,7.07,0,1,0,9.22-10.73m-82.93-19.35a40.22,40.22,0,1,1,35.6-35.57,40.32,40.32,0,0,1-35.6,35.57"/><polygon class="cls-5" points="48.47 212.52 48.47 59.12 147.35 59.12 147.35 71.47 62.97 71.47 62.97 126.87 139.68 126.87 139.68 139.23 62.97 139.23 62.97 212.52 48.47 212.52"/><path class="cls-5" d="M195.5,59.12h14.06v19H195.5Zm.64,43.05h12.78V212.52H196.14Z"/><path class="cls-5" d="M282,212.52H269.23V102.16H282v15.32a82.42,82.42,0,0,1,15.87-13.21q8.21-5.11,19.71-5.1a50.17,50.17,0,0,1,19,3.52,32.16,32.16,0,0,1,14.7,12.25,27.48,27.48,0,0,1,4.8,12.25,112.55,112.55,0,0,1,.74,13.1v72.23H344v-72q0-14.9-6.59-22.37t-22-7.46a31.34,31.34,0,0,0-10.87,1.82,34.25,34.25,0,0,0-8.85,4.79,32.77,32.77,0,0,0-6.71,6.81,31.71,31.71,0,0,0-4.25,8.12,39.62,39.62,0,0,0-2.35,10.22c-.29,3.27-.42,6.81-.42,10.63Z"/><path class="cls-5" d="M610.42,60h14.05v19H610.42Zm.63,43.05h12.79V213.36H611.05Z"/><path class="cls-5" d="M722.92,213.77c-1.57.29-3.63.78-6.19,1.51a32.19,32.19,0,0,1-8.52,1.07c-6.39,0-11.26-1.62-14.59-4.81s-5-8.9-5-17.14V113.64H673.06V103h15.55V72.31H701.4V103h20.66v10.64H701.4v75.63c0,2.71.06,5,.2,7a12,12,0,0,0,1.28,4.89,6.21,6.21,0,0,0,3.3,2.78,18.9,18.9,0,0,0,6.3.84,32.27,32.27,0,0,0,5.21-.42c1.78-.29,3.51-.65,5.23-1.07Z"/></g></svg>